PathFileType	4	(X/Y/Z) abd_2kg_1.trc																										
DataRate	CameraRate	NumFrames	NumMarkers	Units	OrigDataRate	OrigDataStartFrame	OrigNumFrames																					
100	100	24	9	mm	100	311	829																					
Frame#	Time	gu			centelbow			EpL			centpxt8			centijc7			ij			ts			aa			ai		
		X1	Y1	Z1	X2	Y2	Z2	X3	Y3	Z3	X4	Y4	Z4	X5	Y5	Z5	X6	Y6	Z6	X7	Y7	Z7	X8	Y8	Z8	X9	Y9	Z9  
310	3.1	-109.62	69.76	101.952	-87.742	268.615	246.737	-106.118	282.225	224.01	-46.816	-153.158	-8.669	-46.816	31.938	-8.669	0	0	0	-138.236	-16.519	43.58	-151.204	87.568	100.347	-143.294	-66.653	145.298
311	3.11	-109.563	69.207	102.37	-87.089	268.886	245.922	-105.404	282.417	223.099	-46.816	-153.158	-8.669	-46.816	31.938	-8.669	0	0	0	-138.202	-16.56	43.735	-151.358	87.755	100.038	-143.172	-66.249	145.676
312	3.12	-109.688	68.928	102.32	-86.669	269.388	244.694	-104.95	282.833	221.793	-46.816	-153.158	-8.669	-46.816	31.938	-8.669	0	0	0	-138.168	-16.707	43.994	-151.51	87.827	99.846	-143.121	-65.97	146.142
313	3.13	-110.011	68.797	102.077	-86.444	270.049	243.238	-104.728	283.393	220.281	-46.816	-153.158	-8.669	-46.816	31.938	-8.669	0	0	0	-138.164	-16.821	44.295	-151.712	87.924	99.7	-143.148	-65.667	146.641
314	3.14	-110.566	68.683	101.968	-86.408	270.762	241.842	-104.733	283.988	218.85	-46.816	-153.158	-8.669	-46.816	31.938	-8.669	0	0	0	-138.237	-16.765	44.634	-152.017	88.182	99.599	-143.269	-65.205	147.171
315	3.15	-111.274	68.527	101.959	-86.419	271.454	240.477	-104.82	284.552	217.472	-46.816	-153.158	-8.669	-46.816	31.938	-8.669	0	0	0	-138.473	-16.669	45.01	-152.459	88.469	99.557	-143.547	-64.722	147.727
316	3.16	-111.936	68.362	101.92	-86.228	272.141	239.025	-104.733	285.108	216.028	-46.816	-153.158	-8.669	-46.816	31.938	-8.669	0	0	0	-138.871	-16.737	45.39	-152.973	88.584	99.551	-143.929	-64.422	148.28
317	3.17	-112.427	68.395	101.712	-85.747	273.027	237.352	-104.374	285.863	214.381	-46.816	-153.158	-8.669	-46.816	31.938	-8.669	0	0	0	-139.291	-16.895	45.7	-153.414	88.61	99.497	-144.218	-64.215	148.764
318	3.18	-112.771	68.808	101.19	-85.102	274.298	235.327	-103.864	286.998	212.389	-46.816	-153.158	-8.669	-46.816	31.938	-8.669	0	0	0	-139.574	-16.996	45.896	-153.654	88.694	99.341	-144.265	-63.947	149.14
319	3.19	-113.099	69.393	100.476	-84.498	275.718	233.128	-103.389	288.283	210.223	-46.816	-153.158	-8.669	-46.816	31.938	-8.669	0	0	0	-139.73	-17.128	46.015	-153.737	88.749	99.107	-144.16	-63.705	149.44
320	3.2	-113.438	69.632	100.054	-83.954	276.698	231.35	-102.941	289.152	208.463	-46.816	-153.158	-8.669	-46.816	31.938	-8.669	0	0	0	-139.92	-17.398	46.133	-153.853	88.671	98.86	-144.123	-63.592	149.739
321	3.21	-113.602	69.304	100.23	-83.262	276.968	230.381	-102.3	289.345	207.495	-46.816	-153.158	-8.669	-46.816	31.938	-8.669	0	0	0	-140.136	-17.698	46.3	-154.019	88.556	98.665	-144.159	-63.518	150.079
322	3.22	-113.486	68.732	100.69	-82.327	276.899	229.842	-101.391	289.22	206.947	-46.816	-153.158	-8.669	-46.816	31.938	-8.669	0	0	0	-140.237	-17.892	46.512	-154.114	88.524	98.549	-144.124	-63.379	150.442
323	3.23	-113.304	68.351	100.866	-81.363	277.03	228.994	-100.456	289.29	206.091	-46.816	-153.158	-8.669	-46.816	31.938	-8.669	0	0	0	-140.24	-17.966	46.741	-154.151	88.584	98.494	-144.037	-63.17	150.798
324	3.24	-113.331	68.3	100.608	-80.643	277.555	227.605	-99.776	289.736	204.694	-46.816	-153.158	-8.669	-46.816	31.938	-8.669	0	0	0	-140.265	-18	46.934	-154.233	88.667	98.429	-144.015	-62.952	151.102
325	3.25	-113.595	68.388	100.277	-80.195	278.238	226.101	-99.366	290.335	203.176	-46.816	-153.158	-8.669	-46.816	31.938	-8.669	0	0	0	-140.397	-18.111	47.026	-154.416	88.674	98.264	-144.124	-62.813	151.302
326	3.26	-113.897	68.404	100.219	-79.793	278.81	224.921	-98.987	290.833	201.976	-46.816	-153.158	-8.669	-46.816	31.938	-8.669	0	0	0	-140.604	-18.318	47.067	-154.647	88.589	98.043	-144.317	-62.765	151.453
327	3.27	-114.054	68.367	100.397	-79.223	279.274	224.048	-98.429	291.235	201.081	-46.816	-153.158	-8.669	-46.816	31.938	-8.669	0	0	0	-140.705	-18.519	47.177	-154.741	88.511	97.897	-144.388	-62.712	151.671
328	3.28	-114.095	68.288	100.537	-78.469	279.657	223.167	-97.691	291.564	200.186	-46.816	-153.158	-8.669	-46.816	31.938	-8.669	0	0	0	-140.636	-18.645	47.375	-154.635	88.505	97.85	-144.239	-62.589	151.977
329	3.29	-114.124	68.114	100.432	-77.607	279.917	222.047	-96.863	291.775	199.069	-46.816	-153.158	-8.669	-46.816	31.938	-8.669	0	0	0	-140.574	-18.727	47.577	-154.505	88.547	97.806	-144.028	-62.413	152.292
330	3.3	-114.193	67.957	100.175	-76.745	280.177	220.776	-96.057	291.985	197.818	-46.816	-153.158	-8.669	-46.816	31.938	-8.669	0	0	0	-140.65	-18.734	47.715	-154.493	88.673	97.685	-143.894	-62.139	152.554
331	3.31	-114.401	67.996	100.039	-76.044	280.631	219.619	-95.43	292.382	196.695	-46.816	-153.158	-8.669	-46.816	31.938	-8.669	0	0	0	-140.829	-18.578	47.802	-154.585	88.969	97.495	-143.827	-61.683	152.772
332	3.32	-114.774	68.252	100.069	-75.531	281.324	218.58	-95.007	293.009	195.698	-46.816	-153.158	-8.669	-46.816	31.938	-8.669	0	0	0	-141.038	-18.381	47.93	-154.696	89.309	97.337	-143.774	-61.177	153.033
333	3.33	-115.14	68.568	100.032	-75.026	282.097	217.422	-94.597	293.711	194.585	-46.816	-153.158	-8.669	-46.816	31.938	-8.669	0	0	0	-141.272	-18.445	48.2	-154.807	89.39	97.324	-143.761	-60.932	153.435
